<svg width="512" height="512" viewBox="0 0 512 512" fill="none" xmlns="http://www.w3.org/2000/svg">
<g clip-path="url(#clip0_3_27)">
<path d="M226.837 428.044C209.139 438.246 186.508 432.192 176.29 414.523C166.072 396.854 172.136 374.261 189.834 364.059L264.941 320.768C282.64 310.567 305.271 316.621 315.488 334.29C325.707 351.959 319.643 374.553 301.945 384.753L226.837 428.044Z" fill="#164EA0"/>
<path d="M395.997 218.846C416.433 218.846 433 235.386 433 255.788C433 276.191 416.433 292.731 395.997 292.731H115.003C94.5674 292.731 78 276.191 78 255.788C78 235.386 94.5674 218.846 115.003 218.846H395.997Z" fill="#164EA0"/>
<path d="M189.834 146.941C172.136 136.739 166.072 114.146 176.29 96.4766C186.508 78.808 209.139 72.7542 226.837 82.9556L301.945 126.247C319.643 136.447 325.707 159.041 315.488 176.71C305.271 194.379 282.64 200.433 264.941 190.232L189.834 146.941Z" fill="#164EA0"/>
</g>
<defs>
<clipPath id="clip0_3_27">
<rect width="512" height="512" rx="30" fill="white"/>
</clipPath>
</defs>
</svg>
