<svg width="48" height="48" viewBox="0 0 48 48" fill="none" xmlns="http://www.w3.org/2000/svg">
  <path
    d="M20.1244 47.3299C17.7315 48.7093 14.6715 47.8908 13.2898 45.5017C11.9083 43.1127 12.7282 40.0578 15.1212 38.6784L25.2765 32.8249C27.6696 31.4457 30.7296 32.2642 32.1111 34.6533C33.4927 37.0423 32.6728 40.0972 30.2799 41.4765L20.1244 47.3299Z"
    fill="#FFF" />
  <path
    d="M42.9967 19.044C45.7599 19.044 48 21.2803 48 24.039C48 26.7976 45.7599 29.034 42.9967 29.034H5.00325C2.2401 29.034 0 26.7976 0 24.039C0 21.2803 2.2401 19.044 5.00325 19.044H42.9967Z"
    fill="#FFF" />
  <path
    d="M15.1212 9.32159C12.7282 7.94219 11.9083 4.88729 13.2898 2.49825C14.6715 0.109257 17.7315 -0.709291 20.1244 0.670048L30.2799 6.52349C32.6728 7.90274 33.4927 10.9576 32.1111 13.3467C30.7296 15.7357 27.6696 16.5543 25.2765 15.175L15.1212 9.32159Z"
    fill="#FFF" />
</svg>